<svg width="18" height="18" viewBox="0 0 18 18" fill="none" xmlns="http://www.w3.org/2000/svg">
<path fill-rule="evenodd" clip-rule="evenodd" d="M13.2336 0.376415C13.4747 0.135397 13.8016 0 14.1425 0C14.4834 0 14.8104 0.135397 15.0515 0.376415L17.6227 2.94767C17.8638 3.18876 17.9992 3.51571 17.9992 3.85661C17.9992 4.19751 17.8638 4.52446 17.6227 4.76555L6.05208 16.3362C5.91133 16.4774 5.73968 16.5839 5.55068 16.6473L1.6938 17.933C1.4672 18.0088 1.22394 18.02 0.991329 17.9653C0.758714 17.9106 0.545948 17.7922 0.376911 17.6233C0.207874 17.4544 0.0892563 17.2417 0.034371 17.0091C-0.0205143 16.7766 -0.0094947 16.5333 0.0661929 16.3066L1.35182 12.4498C1.41507 12.2603 1.5216 12.0882 1.66294 11.9471L13.2336 0.376415V0.376415ZM14.1425 1.28535L16.7138 3.85661L5.14314 15.4273L1.28625 16.7129L2.57188 12.856L14.1425 1.28535Z" fill="#C4C4C4"/>
<path fill-rule="evenodd" clip-rule="evenodd" d="M14.3302 6.88376L11.1161 3.66969L12.0263 2.75946L15.2404 5.97353L14.3315 6.88376H14.3302ZM2.57181 11.5712V12.214C2.57181 12.3845 2.63953 12.548 2.76008 12.6685C2.88064 12.7891 3.04414 12.8568 3.21462 12.8568H3.85744V13.4996C3.85744 13.6701 3.92516 13.8336 4.04571 13.9541C4.16626 14.0747 4.32977 14.1424 4.50025 14.1424H5.14307V14.7852C5.14307 14.9557 5.21079 15.1192 5.33134 15.2398C5.45189 15.3603 5.61539 15.428 5.78588 15.428H6.42869V13.4996C6.42869 13.3291 6.36097 13.1656 6.24042 13.0451C6.11987 12.9245 5.95636 12.8568 5.78588 12.8568H5.14307V12.214C5.14307 12.0435 5.07534 11.88 4.95479 11.7594C4.83424 11.6389 4.67074 11.5712 4.50025 11.5712H2.57181Z" fill="#C4C4C4"/>
</svg>
